# xmcd
#
# Track frame offsets:
# 150
# 16630
# 30397
# 44340
# 59552
# 78354
# 93215
# 104621
# 119779
# 136745
# 152092
# 168302
# 184917
# 199805
#
# Disc length: 2848 seconds
#
#
# Revision: 0
# Processed by: cddbd v1.5.2PL0 Copyright (c) Steve Scherf et al.
# Submitted via: FreeRIP 2.951 
#
DISCID=b40b1e0e
DTITLE=Volume 03 - Modas de Viola Casse A
DYEAR=1900
DGENRE=Folklore
TTITLE0=Tião Carreiro e Pardinho - Terra Roxa
TTITLE1=Jacó e Jacozinho - O Peão e o Ricaço
TTITLE2=Pedro Bento e Zé da Estrada - As Esporas do Ferreirinha
TTITLE3=Tião Carreiro e Pardinho - Boi Cigano
TTITLE4=Cacique e Pagé - Se os Animais Falassem
TTITLE5=Andre e Andrade - Indio Sertanejo
TTITLE6=Pedro Bento e Zé da Estrada - Rei da Capa
TTITLE7=Camões e Camargo - Golpe da Emoção
TTITLE8=Dino Franco e Mouraí - Linha Reta
TTITLE9=Camões e Camargo - Caboclo Magoado
TTITLE10=Tião Carreiro e Pardinho - Prato do Dia
TTITLE11=Vieira e Vieirinha - A Marreta
TTITLE12=Zico e Zeca - Velho Peão
TTITLE13=Tião Carreiro e Pardinho - Pousada de Boiadeiro
EXTD=
EXTT0=
EXTT1=
EXTT2=
EXTT3=
EXTT4=
EXTT5=
EXTT6=
EXTT7=
EXTT8=
EXTT9=
EXTT10=
EXTT11=
EXTT12=
EXTT13=
PLAYORDER=
